{"title":"Desi Indian college girl fucked by black boyfriend in her hostel","uid":10073913,"size":93400745,"categoryP":"porn","categoryS":"movie_clips","magnet":"?xt=urn:btih:b7c7f4ed3ce11edf8fe7f10941d2d9a5c2512bcd&amp;dn=Desi+Indian+college+girl+fucked+by+black+boyfriend+in+her+hostel&amp;tr=udp%3A%2F%2Ftracker.openbittorrent.com%3A80&amp;tr=udp%3A%2F%2Fopen.demonii.com%3A1337&amp;tr=udp%3A%2F%2Ftracker.coppersurfer.tk%3A6969&amp;tr=udp%3A%2F%2Fexodus.desync.com%3A6969","seeders":4,"leechers":0,"uploader":"desiluv89","files":1,"time":1398892220,"description":"General\nComplete name                            : Desi Indian college girl fucked by black boyfriend in her hostel room.mp4\nFormat                                   : MPEG-4\nFormat profile                           : Base Media\nCodec ID                                 : isom\nFile size                                : 89.1 MiB\nDuration                                 : 20mn 26s\nOverall bit rate                         : 609 Kbps\nWriting application                      : Lavf53.5.0\n\nVideo\nID                                       : 1\nFormat                                   : AVC\nFormat/Info                              : Advanced Video Codec\nFormat profile                           : &lt;a class=&quot;__cf_email__&quot; href=&quot;/cdn-cgi/l/email-protection&quot; data-cfemail=&quot;1e567779765e522c302f&quot;&gt;[email&amp;#160;protected]&lt;/a&gt;&lt;script cf-hash='f9e31' type=&quot;text/javascript&quot;&gt;\n/* &lt;![CDATA[ */!function(){try{var t=&quot;currentScript&quot;in document?document.currentScript:function(){for(var t=document.getElementsByTagName(&quot;script&quot;),e=t.length;e--;)if(t[e].getAttribute(&quot;cf-hash&quot;))return t[e]}();if(t&amp;&amp;t.previousSibling){var e,r,n,i,c=t.previousSibling,a=c.getAttribute(&quot;data-cfemail&quot;);if(a){for(e=&quot;&quot;,r=parseInt(a.substr(0,2),16),n=2;a.length-n;n+=2)i=parseInt(a.substr(n,2),16)^r,e+=String.fromCharCode(i);e=document.createTextNode(e),c.parentNode.replaceChild(e,c)}}}catch(u){}}();/* ]]&gt; */&lt;/script&gt;\nFormat settings, CABAC                   : Yes\nFormat settings, ReFrames                : 4 frames\nCodec ID                                 : avc1\nCodec ID/Info                            : Advanced Video Coding\nDuration                                 : 20mn 26s\nBit rate                                 : 512 Kbps\nWidth                                    : 426 pixels\nHeight                                   : 240 pixels\nDisplay aspect ratio                     : 16:9\nFrame rate mode                          : Constant\nFrame rate                               : 29.970 fps\nColor space                              : YUV\nChroma subsampling                       : 4:2:0\nBit depth                                : 8 bits\nScan type                                : Progressive\nBits/(Pixel*Frame)                       : 0.167\nStream size                              : 74.9 MiB (84%)\n\nAudio\nID                                       : 2\nFormat                                   : AAC\nFormat/Info                              : Advanced Audio Codec\nFormat profile                           : LC\nCodec ID                                 : 40\nDuration                                 : 20mn 26s\nBit rate mode                            : Constant\nBit rate                                 : 59.0 Kbps\nChannel(s)                               : 2 channels\nChannel positions                        : Front: L R\nSampling rate                            : 44.1 KHz\nCompression mode                         : Lossy\nStream size                              : 8.62 MiB (10%)\n\nScreens:\n\n","torrent":{"xt":"urn:btih:b7c7f4ed3ce11edf8fe7f10941d2d9a5c2512bcd","amp;dn":"Desi+Indian+college+girl+fucked+by+black+boyfriend+in+her+hostel","amp;tr":["udp%3A%2F%2Ftracker.openbittorrent.com%3A80","udp%3A%2F%2Fopen.demonii.com%3A1337","udp%3A%2F%2Ftracker.coppersurfer.tk%3A6969","udp%3A%2F%2Fexodus.desync.com%3A6969"],"infoHash":"b7c7f4ed3ce11edf8fe7f10941d2d9a5c2512bcd","infoHashBuffer":{"type":"Buffer","data":[183,199,244,237,60,225,30,223,143,231,241,9,65,210,217,165,194,81,43,205]},"announce":[],"urlList":[]}}